<svg xmlns="http://www.w3.org/2000/svg" viewBox="0 0 210.62 214.79"><title>PflutoLogoMark</title><path d="M210.62,104.89A95,95,0,0,0,155.89,19,94.81,94.81,0,0,0,6.66,73.39a94.63,94.63,0,0,0,21.47,102.2,94.78,94.78,0,0,0,158.76-8A94.5,94.5,0,0,0,210.62,104.89Zm-5.17,0A89.17,89.17,0,0,1,196.92,143a94.71,94.71,0,0,0,2.86-23.12c0-2.52-.12-5-.32-7.5.2-2.48.32-5,.32-7.51a94.33,94.33,0,0,0-16-52.69,94.59,94.59,0,0,0-9.84-15.51A89.52,89.52,0,0,1,205.45,104.89Zm-51.21,81a95.53,95.53,0,0,0,37-41.79,89.06,89.06,0,0,1-8.62,20.45A90.23,90.23,0,0,1,154.24,185.91ZM32.06,172.19A89.47,89.47,0,0,1,19,145.69c.41.63.8,1.27,1.22,1.9a95.27,95.27,0,0,0,62.12,49.46A89.49,89.49,0,0,1,32.06,172.19ZM11.61,74.92a90,90,0,0,1,20-30.19A94.42,94.42,0,0,0,10,104.89c0,.31,0,.6,0,.9a88.07,88.07,0,0,1,1.58-30.87ZM94.89,18.51a89.2,89.2,0,0,1,50.45,15.58A94.57,94.57,0,0,0,54,39.86,89.65,89.65,0,0,1,91.24,18.61C92.45,18.56,93.66,18.51,94.89,18.51Zm33.17,173.05a88.77,88.77,0,0,1-17.74,2.87,88.94,88.94,0,0,1-27.36-6,96,96,0,0,0,16.1,1.39,94.62,94.62,0,0,0,69.34-30.21A90.14,90.14,0,0,1,128.06,191.56Zm-29-6.95a89.09,89.09,0,0,1-37.46-8.23A89.52,89.52,0,0,1,38,60.23a89.53,89.53,0,0,1,129.74-4.29,89.28,89.28,0,0,1,14.62,72.26A89.85,89.85,0,0,1,99.06,184.61Zm89.7-90.18a93.94,93.94,0,0,0-2.9-13.16c.93,2,1.77,3.94,2.57,6C188.63,89.61,188.75,92,188.76,94.43Zm-155-37.2A95.43,95.43,0,0,0,18.52,80.68a90.15,90.15,0,0,1,47.87-56.8A95.48,95.48,0,0,0,33.74,57.23ZM15.52,112.4a88.79,88.79,0,0,1,8.19-30.62,94.66,94.66,0,0,0,17.16,81.31A90.2,90.2,0,0,1,24.68,145,89,89,0,0,1,15.52,112.4Zm43.39,68.44c2.4,1.8,4.9,3.5,7.48,5.07A89.22,89.22,0,0,1,51.54,177C53.93,178.36,56.39,179.66,58.91,180.84Zm128.38-51.11a94.06,94.06,0,0,0,6.09-24.56c.4,2.38.69,4.79.89,7.23a89.5,89.5,0,0,1-26.06,56A94.66,94.66,0,0,0,187.29,129.73ZM185,69.11a95.49,95.49,0,0,0-13.33-16.57,95.14,95.14,0,0,0-54.18-36.46,89.85,89.85,0,0,1,61.8,38.69A88,88,0,0,1,185,69.11ZM99.06,5.17a89.26,89.26,0,0,1,32.77,6.23A94.88,94.88,0,0,0,115.73,10c-1.81,0-3.62.06-5.41.16-1.8-.1-3.6-.16-5.42-.16a94.32,94.32,0,0,0-34.84,6.65A94.94,94.94,0,0,0,25.55,43.55,89.64,89.64,0,0,1,99.06,5.17ZM5.18,108.69a94.36,94.36,0,0,0,5.25,20,94.39,94.39,0,0,0,3.5,18.13A89.07,89.07,0,0,1,5.18,108.69ZM54.44,194a94.53,94.53,0,0,0,65.73,5.63,94.32,94.32,0,0,0,46.43-14.73A89.48,89.48,0,0,1,54.44,194Z" style="fill:#61bdde"/></svg>